<mxfile host="app.diagrams.net" modified="2023-12-08T10:52:07.022Z" agent="Mozilla/5.0 (Windows NT 10.0; Win64; x64; rv:120.0) Gecko/20100101 Firefox/120.0" etag="s33CZUyGgHpbcTVRPerf" version="22.1.7" type="device">
  <diagram id="C5RBs43oDa-KdzZeNtuy" name="Page-1">
    <mxGraphModel dx="2074" dy="1094" grid="1" gridSize="10" guides="1" tooltips="1" connect="1" arrows="1" fold="1" page="1" pageScale="1" pageWidth="827" pageHeight="1169" math="0" shadow="0">
      <root>
        <mxCell id="WIyWlLk6GJQsqaUBKTNV-0" />
        <mxCell id="WIyWlLk6GJQsqaUBKTNV-1" parent="WIyWlLk6GJQsqaUBKTNV-0" />
        <mxCell id="6N6PK-sf3pcbVXsgEC-G-3" value="" style="edgeStyle=orthogonalEdgeStyle;rounded=0;orthogonalLoop=1;jettySize=auto;html=1;entryX=0.5;entryY=0;entryDx=0;entryDy=0;" parent="WIyWlLk6GJQsqaUBKTNV-1" source="6N6PK-sf3pcbVXsgEC-G-4" target="6N6PK-sf3pcbVXsgEC-G-55" edge="1">
          <mxGeometry relative="1" as="geometry">
            <mxPoint x="148.75000000000023" y="130" as="targetPoint" />
          </mxGeometry>
        </mxCell>
        <mxCell id="6N6PK-sf3pcbVXsgEC-G-4" value="Employee&lt;br&gt;Constructor" style="strokeWidth=2;html=1;shape=mxgraph.flowchart.start_1;whiteSpace=wrap;" parent="WIyWlLk6GJQsqaUBKTNV-1" vertex="1">
          <mxGeometry x="98.75" y="30" width="100" height="60" as="geometry" />
        </mxCell>
        <mxCell id="6N6PK-sf3pcbVXsgEC-G-59" value="" style="edgeStyle=orthogonalEdgeStyle;rounded=0;orthogonalLoop=1;jettySize=auto;html=1;entryX=0.5;entryY=0;entryDx=0;entryDy=0;" parent="WIyWlLk6GJQsqaUBKTNV-1" source="6N6PK-sf3pcbVXsgEC-G-55" target="6N6PK-sf3pcbVXsgEC-G-60" edge="1">
          <mxGeometry relative="1" as="geometry">
            <mxPoint x="148.6875" y="220" as="targetPoint" />
          </mxGeometry>
        </mxCell>
        <mxCell id="6N6PK-sf3pcbVXsgEC-G-55" value="Set instance name" style="whiteSpace=wrap;html=1;strokeWidth=2;" parent="WIyWlLk6GJQsqaUBKTNV-1" vertex="1">
          <mxGeometry x="88.75" y="122.5" width="120" height="60" as="geometry" />
        </mxCell>
        <mxCell id="k7-M4Dx4AvxuY_eNaVXy-2" value="" style="edgeStyle=orthogonalEdgeStyle;rounded=0;orthogonalLoop=1;jettySize=auto;html=1;" parent="WIyWlLk6GJQsqaUBKTNV-1" source="6N6PK-sf3pcbVXsgEC-G-60" target="k7-M4Dx4AvxuY_eNaVXy-1" edge="1">
          <mxGeometry relative="1" as="geometry" />
        </mxCell>
        <mxCell id="6N6PK-sf3pcbVXsgEC-G-60" value="Set instance employeeNumber" style="whiteSpace=wrap;html=1;strokeWidth=2;" parent="WIyWlLk6GJQsqaUBKTNV-1" vertex="1">
          <mxGeometry x="88.75" y="220" width="120" height="60" as="geometry" />
        </mxCell>
        <mxCell id="6N6PK-sf3pcbVXsgEC-G-65" value="" style="edgeStyle=orthogonalEdgeStyle;rounded=0;orthogonalLoop=1;jettySize=auto;html=1;" parent="WIyWlLk6GJQsqaUBKTNV-1" source="6N6PK-sf3pcbVXsgEC-G-63" edge="1">
          <mxGeometry relative="1" as="geometry">
            <mxPoint x="455" y="122.5" as="targetPoint" />
          </mxGeometry>
        </mxCell>
        <mxCell id="6N6PK-sf3pcbVXsgEC-G-63" value="Employee&lt;br&gt;createPinNum" style="strokeWidth=2;html=1;shape=mxgraph.flowchart.start_1;whiteSpace=wrap;" parent="WIyWlLk6GJQsqaUBKTNV-1" vertex="1">
          <mxGeometry x="390" y="30" width="130" height="60" as="geometry" />
        </mxCell>
        <mxCell id="6N6PK-sf3pcbVXsgEC-G-70" value="&lt;div&gt;Has arguments:&lt;/div&gt;&lt;div&gt;name&lt;br&gt;employeeNumber&lt;br&gt;employeeAge&lt;br&gt; &lt;/div&gt;" style="strokeWidth=2;html=1;shape=mxgraph.flowchart.annotation_2;align=left;labelPosition=right;pointerEvents=1;" parent="WIyWlLk6GJQsqaUBKTNV-1" vertex="1">
          <mxGeometry x="208.75" y="30" width="50" height="60" as="geometry" />
        </mxCell>
        <mxCell id="k7-M4Dx4AvxuY_eNaVXy-6" value="" style="edgeStyle=orthogonalEdgeStyle;rounded=0;orthogonalLoop=1;jettySize=auto;html=1;" parent="WIyWlLk6GJQsqaUBKTNV-1" source="k7-M4Dx4AvxuY_eNaVXy-1" edge="1">
          <mxGeometry relative="1" as="geometry">
            <mxPoint x="148.75" y="420" as="targetPoint" />
          </mxGeometry>
        </mxCell>
        <mxCell id="k7-M4Dx4AvxuY_eNaVXy-1" value="Set instance employeeAge" style="whiteSpace=wrap;html=1;strokeWidth=2;" parent="WIyWlLk6GJQsqaUBKTNV-1" vertex="1">
          <mxGeometry x="88.75" y="320" width="120" height="60" as="geometry" />
        </mxCell>
        <mxCell id="k7-M4Dx4AvxuY_eNaVXy-9" value="" style="edgeStyle=orthogonalEdgeStyle;rounded=0;orthogonalLoop=1;jettySize=auto;html=1;" parent="WIyWlLk6GJQsqaUBKTNV-1" source="k7-M4Dx4AvxuY_eNaVXy-7" target="k7-M4Dx4AvxuY_eNaVXy-8" edge="1">
          <mxGeometry relative="1" as="geometry" />
        </mxCell>
        <mxCell id="k7-M4Dx4AvxuY_eNaVXy-7" value="Set instance pinNum = createPinNum" style="shape=process;whiteSpace=wrap;html=1;backgroundOutline=1;" parent="WIyWlLk6GJQsqaUBKTNV-1" vertex="1">
          <mxGeometry x="89" y="420" width="120" height="60" as="geometry" />
        </mxCell>
        <mxCell id="k7-M4Dx4AvxuY_eNaVXy-8" value="End" style="strokeWidth=2;html=1;shape=mxgraph.flowchart.terminator;whiteSpace=wrap;" parent="WIyWlLk6GJQsqaUBKTNV-1" vertex="1">
          <mxGeometry x="98.75" y="510" width="100" height="60" as="geometry" />
        </mxCell>
        <mxCell id="k7-M4Dx4AvxuY_eNaVXy-13" value="" style="edgeStyle=orthogonalEdgeStyle;rounded=0;orthogonalLoop=1;jettySize=auto;html=1;" parent="WIyWlLk6GJQsqaUBKTNV-1" source="k7-M4Dx4AvxuY_eNaVXy-10" target="k7-M4Dx4AvxuY_eNaVXy-12" edge="1">
          <mxGeometry relative="1" as="geometry" />
        </mxCell>
        <mxCell id="k7-M4Dx4AvxuY_eNaVXy-10" value="Split name by space into array" style="rounded=1;whiteSpace=wrap;html=1;absoluteArcSize=1;arcSize=14;strokeWidth=2;" parent="WIyWlLk6GJQsqaUBKTNV-1" vertex="1">
          <mxGeometry x="362.5" y="122.5" width="185" height="57.5" as="geometry" />
        </mxCell>
        <mxCell id="k7-M4Dx4AvxuY_eNaVXy-11" value="End" style="strokeWidth=2;html=1;shape=mxgraph.flowchart.terminator;whiteSpace=wrap;" parent="WIyWlLk6GJQsqaUBKTNV-1" vertex="1">
          <mxGeometry x="405" y="310" width="100" height="60" as="geometry" />
        </mxCell>
        <mxCell id="k7-M4Dx4AvxuY_eNaVXy-14" value="" style="edgeStyle=orthogonalEdgeStyle;rounded=0;orthogonalLoop=1;jettySize=auto;html=1;" parent="WIyWlLk6GJQsqaUBKTNV-1" source="k7-M4Dx4AvxuY_eNaVXy-12" target="k7-M4Dx4AvxuY_eNaVXy-11" edge="1">
          <mxGeometry relative="1" as="geometry" />
        </mxCell>
        <mxCell id="k7-M4Dx4AvxuY_eNaVXy-12" value="(length of firstName[0] * employeeAge) mod 100" style="rounded=1;whiteSpace=wrap;html=1;arcSize=14;strokeWidth=2;" parent="WIyWlLk6GJQsqaUBKTNV-1" vertex="1">
          <mxGeometry x="353.75" y="220" width="202.5" height="60" as="geometry" />
        </mxCell>
      </root>
    </mxGraphModel>
  </diagram>
</mxfile>
